<?xml version="1.0" standalone="no"?>
<!DOCTYPE svg PUBLIC "-//W3C//DTD SVG 20010904//EN"
 "http://www.w3.org/TR/2001/REC-SVG-20010904/DTD/svg10.dtd">
<svg version="1.0" xmlns="http://www.w3.org/2000/svg"
 width="700.000000pt" height="700.000000pt" viewBox="0 0 700.000000 700.000000"
 preserveAspectRatio="xMidYMid meet">
<metadata>
Created by potrace 1.14, written by Peter Selinger 2001-2017
</metadata>
<g transform="translate(0.000000,700.000000) scale(0.100000,-0.100000)"
fill="#000000" stroke="none">
<path d="M1685 5865 c-50 -13 -101 -27 -115 -33 -270 -106 -476 -319 -565
-587 -29 -84 -29 -85 -43 -178 -10 -62 -8 -223 3 -257 5 -14 2 -20 -9 -20 -9
0 -24 -4 -34 -9 -9 -5 -53 -23 -97 -41 -398 -157 -708 -536 -801 -980 -25
-118 -25 -382 0 -500 99 -474 430 -853 882 -1010 l62 -22 -6 -36 c-7 -50 -7
-187 1 -237 25 -162 76 -292 163 -416 147 -210 359 -344 622 -394 61 -12 262
-12 312 -1 14 3 39 8 55 12 122 25 293 110 397 197 38 32 70 57 71 55 73 -146
192 -219 337 -205 213 19 360 249 279 436 -22 51 -118 151 -145 151 -7 0 -14
4 -16 8 -1 5 -73 44 -158 87 -85 43 -179 93 -208 111 -29 19 -55 34 -57 34 -3
0 -49 33 -102 74 -108 82 -227 194 -288 271 -22 28 -43 52 -46 55 -37 28 -235
375 -243 424 -1 6 -4 16 -7 21 -13 21 -64 195 -79 268 -29 139 -39 248 -35
402 5 157 8 190 37 325 36 170 115 379 191 505 128 212 253 357 426 497 110
89 195 141 381 237 185 94 264 145 305 193 110 130 79 348 -64 452 -170 123
-382 79 -488 -101 l-24 -42 -31 27 c-18 15 -40 35 -50 45 -48 46 -184 121
-283 155 -162 57 -371 68 -530 27z"/>
<path d="M5078 5885 c-2 -2 -33 -6 -68 -8 -116 -8 -245 -46 -355 -104 -48 -25
-134 -80 -145 -92 -3 -3 -25 -23 -49 -45 l-43 -38 -18 38 c-22 50 -90 117
-144 143 -112 55 -234 44 -341 -29 -136 -93 -180 -306 -89 -429 57 -76 92
-100 311 -214 100 -52 195 -104 212 -116 16 -12 32 -21 35 -21 4 0 12 -5 19
-10 7 -6 44 -34 82 -63 398 -297 637 -720 694 -1229 8 -66 6 -334 -3 -383 -1
-11 -6 -42 -10 -70 -26 -168 -98 -383 -178 -529 -21 -38 -38 -70 -38 -72 0
-11 -95 -149 -147 -214 -173 -217 -374 -371 -680 -524 -212 -105 -276 -154
-318 -242 -52 -109 -26 -255 62 -350 152 -164 425 -132 529 62 10 19 22 34 27
34 5 0 32 -21 60 -46 182 -163 477 -252 732 -219 273 35 523 192 674 422 47
71 108 199 116 245 2 11 7 29 11 41 9 25 10 32 20 107 10 71 10 195 1 241 l-7
36 57 18 c32 10 65 21 73 25 8 4 29 14 45 21 276 122 523 361 656 634 97 200
132 352 133 570 1 203 -11 289 -64 446 -131 392 -420 687 -820 837 -67 25 -75
31 -73 53 15 166 2 295 -41 424 -121 358 -448 614 -816 641 -41 3 -80 7 -87 9
-6 2 -13 2 -15 0z"/>
<path d="M3360 4530 c-147 -18 -340 -97 -479 -195 -60 -42 -214 -212 -259
-285 -45 -73 -107 -211 -117 -260 -2 -8 -8 -35 -14 -60 -118 -485 160 -1008
633 -1191 618 -239 1294 149 1399 804 13 82 15 264 3 317 -3 14 -9 41 -12 60
-30 174 -155 396 -304 536 -130 124 -335 233 -485 259 -16 2 -41 7 -55 11 -38
9 -248 11 -310 4z"/>
</g>
</svg>
